PathFileType	4	(X/Y/Z)	C:\Users\Vitor Bertoli\OneDrive\Documents\Yolotestes\IMG_0211_Sports2D\IMG_0211_Sports2D_m_person00.trc
DataRate	CameraRate	NumFrames	NumMarkers	Units	OrigDataRate	OrigDataStartFrame	OrigNumFrames
116	116	7	22	m	116	381	436
Frame#	Time	Hip			RHip			RKnee			RAnkle			RBigToe			RSmallToe			RHeel			LHip			LKnee			LAnkle			LBigToe			LSmallToe			LHeel			Neck			Head			Nose			RShoulder			RElbow			RWrist			LShoulder			LElbow			LWrist		
		X1	Y1	Z1	X2	Y2	Z2	X3	Y3	Z3	X4	Y4	Z4	X5	Y5	Z5	X6	Y6	Z6	X7	Y7	Z7	X8	Y8	Z8	X9	Y9	Z9	X10	Y10	Z10	X11	Y11	Z11	X12	Y12	Z12	X13	Y13	Z13	X14	Y14	Z14	X15	Y15	Z15	X16	Y16	Z16	X17	Y17	Z17	X18	Y18	Z18	X19	Y19	Z19	X20	Y20	Z20	X21	Y21	Z21	X22	Y22	Z22
381	3.2844827586206895	13.813955113415759	1.127523278643537	0.0	13.829529594780082	1.0571182992333377	0.0	13.796284141510572	0.6134165711251114	0.0	13.438935922573334	0.2938880894938291	0.0	13.441693349559856	0.09135373490184229	0.0	13.39847311869957	0.13706818064060106	0.0	13.35625385806592	0.29867925697786973	0.0	13.824852838364544	1.080246991714421	0.0	13.797391051614943	0.6186792774063139	0.0	13.43548879811375	0.31288710964912014	0.0	13.441913630870967	0.1149594430634064	0.0	13.441848245915065	0.13778239160681358	0.0	13.353174449594782	0.32046221388186696	0.0	13.818343619113424	1.5439746553763145	0.0	13.799003162611845	1.7763079119212097	0.0	13.805488373928215	1.6377016745156514	0.0	13.794289074432085	1.5078606765870124	0.0	13.774017881384692	1.4265580385812513	0.0	13.785890925740231	1.2169745856883873	0.0	13.76866894869469	1.481064098364332	0.0	13.750875310399227	1.418539983616513	0.0	13.782528348147853	1.194408103578862	0.0
382	3.293103448275862	13.812437157369432	1.1287536488159344	0.0	13.82848775871874	1.0572385740678103	0.0	13.79677186510792	0.613716377797201	0.0	13.434448419707087	0.2951089103413228	0.0	13.4362807814666	0.09293918880646998	0.0	13.392839884246959	0.13894067253300268	0.0	13.351668225702007	0.30088522080554997	0.0	13.824502114890413	1.0806961097790353	0.0	13.798068297946863	0.6189671051687539	0.0	13.435887506485713	0.31322605218831223	0.0	13.442933390371556	0.11550300566714403	0.0	13.443132646695934	0.13823315975928366	0.0	13.35328674151149	0.3211745934557147	0.0	13.816538154826839	1.5431805029462378	0.0	13.797244919218402	1.7756025727352975	0.0	13.803968197302012	1.6369829905672588	0.0	13.79292230908894	1.507159436890413	0.0	13.773003997345484	1.4267247618002497	0.0	13.784156373360366	1.2155422030355663	0.0	13.766645574594927	1.4799753737146557	0.0	13.748811984141518	1.4187305318379846	0.0	13.780413456062949	1.1924827132964446	0.0
383	3.3017241379310343	13.810731407994645	1.1290217096174644	0.0	13.82733107726116	1.0568642616618316	0.0	13.79715733756889	0.6137359494336371	0.0	13.431654633409346	0.29628959521732046	0.0	13.43281120909678	0.0944114570232143	0.0	13.389319064437217	0.14048009782904633	0.0	13.34882492322526	0.30278987821838843	0.0	13.82328865595294	1.0804593206527395	0.0	13.797670490425025	0.6189007322547697	0.0	13.435645334265878	0.31307360647071336	0.0	13.443318226782232	0.1155728220445948	0.0	13.443615803599426	0.13825703762552385	0.0	13.35286080347534	0.3211742285512672	0.0	13.814813612578595	1.5428345005356476	0.0	13.795719942742114	1.7753698898877692	0.0	13.802808736133095	1.6367287465726337	0.0	13.791661531656029	1.5067805727980408	0.0	13.771631910158545	1.4265905961505105	0.0	13.782749597967944	1.2142278113728802	0.0	13.764604448501432	1.4793795390672537	0.0	13.746642814372368	1.4183459395352498	0.0	13.77868848410344	1.1910360280788321	0.0
384	3.310344827586207	13.809052733490429	1.1286590675316042	0.0	13.826200649808701	1.056209531086534	0.0	13.797445303673667	0.6135768491482773	0.0	13.430169238597545	0.2973440875922771	0.0	13.430865195122335	0.0956864894538849	0.0	13.387433187382106	0.1416776716525246	0.0	13.347324946244067	0.30434154992235735	0.0	13.821633922696751	1.0798095272018469	0.0	13.796627640731387	0.6186163102080375	0.0	13.435019056911209	0.3126238135148096	0.0	13.443269168211902	0.11533745077066396	0.0	13.443551617485127	0.13800924629752503	0.0	13.352131291266158	0.3207237155742076	0.0	13.813287474627053	1.5428011078552841	0.0	13.794472548814161	1.7754556166972695	0.0	13.801976137175497	1.636789564186662	0.0	13.790575380406432	1.5066376842910967	0.0	13.770150766627633	1.4262778440052823	0.0	13.781670003455423	1.213100206385315	0.0	13.762726442190882	1.4791459106633102	0.0	13.74459206075477	1.4176309285025988	0.0	13.777357120594106	1.1900152606861045	0.0
385	3.3189655172413794	13.807534535114172	1.1279290379974094	0.0	13.825183354339055	1.0554336049418618	0.0	13.797647088289963	0.6133184859385409	0.0	13.429637109172015	0.29822881105291094	0.0	13.430047690314703	0.0967280447682134	0.0	13.386741035108056	0.14255704282300738	0.0	13.346801544911532	0.3055377430043294	0.0	13.819841804946094	1.0789543732591083	0.0	13.795266443100596	0.6182184577551282	0.0	13.434203663686125	0.31202462867351927	0.0	13.44295024567255	0.11492942178374924	0.0	13.443147204098295	0.137611028770616	0.0	13.351272344921368	0.32002736109502933	0.0	13.812016998713496	1.542968015852857	0.0	13.79350701952613	1.775735133525728	0.0	13.80142110101377	1.6370441846357264	0.0	13.78969229343103	1.506656045297167	0.0	13.768727245790318	1.4258790062678977	0.0	13.780889268857061	1.2121868869620027	0.0	13.761111864741808	1.4791610108734692	0.0	13.742791254882993	1.416768289399412	0.0	13.776388077109718	1.189350692410278	0.0
386	3.3275862068965516	13.806247364704014	1.127029313167768	0.0	13.82432440159983	1.0546474017073886	0.0	13.797777205104703	0.6130194936492733	0.0	13.429752524378886	0.29893074206611914	0.0	13.430012790383815	0.09753317367793404	0.0	13.38686197245605	0.14316032588835087	0.0	13.346939665829755	0.3064072442667163	0.0	13.818115977686903	1.0780425493321513	0.0	13.793820432151419	0.6177829415952797	0.0	13.433338464848436	0.3113822621197796	0.0	13.442488112442506	0.1144471894821653	0.0	13.442562439345012	0.13715181166491996	0.0	13.350405008634077	0.31923520523580723	0.0	13.811016513571257	1.543247180940182	0.0	13.79280198550144	1.7761131773233847	0.0	13.801088782872425	1.6373994665437752	0.0	13.789012888939496	1.506774685508793	0.0	13.767461702881548	1.4254598603380664	0.0	13.780363980692668	1.2114869196916296	0.0	13.759801573342795	1.4793319217994476	0.0	13.741302125936523	1.4158860842113727	0.0	13.775730645765913	1.1889678650561453	0.0
387	3.336206896551724	13.805216051719487	1.1260992517745432	0.0	13.823638823300385	1.0539218567882993	0.0	13.797850942295787	0.6127203763471267	0.0	13.4302670801126	0.29945726705660497	0.0	13.430475175279152	0.09812020650564321	0.0	13.387486139183691	0.1435377016095493	0.0	13.347483816440846	0.3069961385362563	0.0	13.816579422990223	1.0771728105680256	0.0	13.792444355457992	0.6173608338702813	0.0	13.432515704565423	0.3107674858048776	0.0	13.441974996076052	0.1139592767121004	0.0	13.44191370682726	0.13669328802891162	0.0	13.349606452168853	0.3184501977836715	0.0	13.810272009566027	1.5435734057166748	0.0	13.792321700696895	1.7765211634651472	0.0	13.800925519731859	1.637787983057718	0.0	13.788520160919827	1.5069465304115388	0.0	13.766404030786823	1.4250636866471227	0.0	13.780044900778837	1.2109814926524065	0.0	13.758795384944449	1.479586647452381	0.0	13.740137042649943	1.4150668697897584	0.0	13.775326184030854	1.1887956863631501	0.0
